# xmcd
#
# Track frame offsets: 
#        150
#        2515
#        15897
#        32097
#        43583
#        55877
#        69671
#        85645
#        98036
#        110514
#        126704
#        140442
#
# Disc length: 2168 seconds
#
# Revision: 0
# Processed by: cddbd v1.5.2PL0 Copyright (c) Steve Scherf et al.
# Submitted via: ExactAudioCopyFreeDBPlugin 1.0
#
DISCID=9508760c
DTITLE=Camila Koller - A Thousand Doors
DYEAR=2016
DGENRE=Folk
TTITLE0=Intro (I'm Late)
TTITLE1=Ticking Clocks
TTITLE2=Fall
TTITLE3=Drink Me
TTITLE4=A Thousand Doors
TTITLE5=House On The Water
TTITLE6=Wings
TTITLE7=Wonderland
TTITLE8=In A Maze
TTITLE9=Card Game
TTITLE10=Everyone Is Mad
TTITLE11=I See Fire
EXTD=
EXTT0=
EXTT1=
EXTT2=
EXTT3=
EXTT4=
EXTT5=
EXTT6=
EXTT7=
EXTT8=
EXTT9=
EXTT10=
EXTT11=
PLAYORDER=
